<mxfile host="app.diagrams.net" modified="2021-07-12T07:26:10.507Z" agent="5.0 (Windows NT 10.0; Win64; x64) AppleWebKit/537.36 (KHTML, like Gecko) Chrome/91.0.4472.124 Safari/537.36" etag="1E4RHkBmqksVLNeeyNv2" version="14.8.5" type="github">
  <diagram id="K5lIXUT32p8uXnv0bPLn" name="Page-1">
    <mxGraphModel dx="1221" dy="644" grid="1" gridSize="10" guides="1" tooltips="1" connect="1" arrows="1" fold="1" page="1" pageScale="1" pageWidth="827" pageHeight="1169" math="0" shadow="0">
      <root>
        <mxCell id="0" />
        <mxCell id="1" parent="0" />
        <mxCell id="VPEwx-q7KFhS5goN6XgM-53" value="会員" style="shape=table;startSize=30;container=1;collapsible=1;childLayout=tableLayout;fixedRows=1;rowLines=0;fontStyle=1;align=center;resizeLast=1;" vertex="1" parent="1">
          <mxGeometry x="10" y="25" width="180" height="430" as="geometry" />
        </mxCell>
        <mxCell id="VPEwx-q7KFhS5goN6XgM-54" value="" style="shape=partialRectangle;collapsible=0;dropTarget=0;pointerEvents=0;fillColor=none;top=0;left=0;bottom=1;right=0;points=[[0,0.5],[1,0.5]];portConstraint=eastwest;" vertex="1" parent="VPEwx-q7KFhS5goN6XgM-53">
          <mxGeometry y="30" width="180" height="30" as="geometry" />
        </mxCell>
        <mxCell id="VPEwx-q7KFhS5goN6XgM-55" value="PK" style="shape=partialRectangle;connectable=0;fillColor=none;top=0;left=0;bottom=0;right=0;fontStyle=1;overflow=hidden;" vertex="1" parent="VPEwx-q7KFhS5goN6XgM-54">
          <mxGeometry width="30" height="30" as="geometry" />
        </mxCell>
        <mxCell id="VPEwx-q7KFhS5goN6XgM-56" value="会員id" style="shape=partialRectangle;connectable=0;fillColor=none;top=0;left=0;bottom=0;right=0;align=left;spacingLeft=6;fontStyle=5;overflow=hidden;" vertex="1" parent="VPEwx-q7KFhS5goN6XgM-54">
          <mxGeometry x="30" width="150" height="30" as="geometry" />
        </mxCell>
        <mxCell id="VPEwx-q7KFhS5goN6XgM-57" value="" style="shape=partialRectangle;collapsible=0;dropTarget=0;pointerEvents=0;fillColor=none;top=0;left=0;bottom=0;right=0;points=[[0,0.5],[1,0.5]];portConstraint=eastwest;" vertex="1" parent="VPEwx-q7KFhS5goN6XgM-53">
          <mxGeometry y="60" width="180" height="30" as="geometry" />
        </mxCell>
        <mxCell id="VPEwx-q7KFhS5goN6XgM-58" value="" style="shape=partialRectangle;connectable=0;fillColor=none;top=0;left=0;bottom=0;right=0;editable=1;overflow=hidden;" vertex="1" parent="VPEwx-q7KFhS5goN6XgM-57">
          <mxGeometry width="30" height="30" as="geometry" />
        </mxCell>
        <mxCell id="VPEwx-q7KFhS5goN6XgM-59" value="姓" style="shape=partialRectangle;connectable=0;fillColor=none;top=0;left=0;bottom=0;right=0;align=left;spacingLeft=6;overflow=hidden;" vertex="1" parent="VPEwx-q7KFhS5goN6XgM-57">
          <mxGeometry x="30" width="150" height="30" as="geometry" />
        </mxCell>
        <mxCell id="VPEwx-q7KFhS5goN6XgM-60" value="" style="shape=partialRectangle;collapsible=0;dropTarget=0;pointerEvents=0;fillColor=none;top=0;left=0;bottom=0;right=0;points=[[0,0.5],[1,0.5]];portConstraint=eastwest;" vertex="1" parent="VPEwx-q7KFhS5goN6XgM-53">
          <mxGeometry y="90" width="180" height="30" as="geometry" />
        </mxCell>
        <mxCell id="VPEwx-q7KFhS5goN6XgM-61" value="" style="shape=partialRectangle;connectable=0;fillColor=none;top=0;left=0;bottom=0;right=0;editable=1;overflow=hidden;" vertex="1" parent="VPEwx-q7KFhS5goN6XgM-60">
          <mxGeometry width="30" height="30" as="geometry" />
        </mxCell>
        <mxCell id="VPEwx-q7KFhS5goN6XgM-62" value="名" style="shape=partialRectangle;connectable=0;fillColor=none;top=0;left=0;bottom=0;right=0;align=left;spacingLeft=6;overflow=hidden;" vertex="1" parent="VPEwx-q7KFhS5goN6XgM-60">
          <mxGeometry x="30" width="150" height="30" as="geometry" />
        </mxCell>
        <mxCell id="VPEwx-q7KFhS5goN6XgM-44" value="" style="shape=partialRectangle;collapsible=0;dropTarget=0;pointerEvents=0;fillColor=none;top=0;left=0;bottom=0;right=0;points=[[0,0.5],[1,0.5]];portConstraint=eastwest;" vertex="1" parent="VPEwx-q7KFhS5goN6XgM-53">
          <mxGeometry y="120" width="180" height="30" as="geometry" />
        </mxCell>
        <mxCell id="VPEwx-q7KFhS5goN6XgM-45" value="" style="shape=partialRectangle;connectable=0;fillColor=none;top=0;left=0;bottom=0;right=0;editable=1;overflow=hidden;" vertex="1" parent="VPEwx-q7KFhS5goN6XgM-44">
          <mxGeometry width="30" height="30" as="geometry" />
        </mxCell>
        <mxCell id="VPEwx-q7KFhS5goN6XgM-46" value="姓カナ" style="shape=partialRectangle;connectable=0;fillColor=none;top=0;left=0;bottom=0;right=0;align=left;spacingLeft=6;overflow=hidden;" vertex="1" parent="VPEwx-q7KFhS5goN6XgM-44">
          <mxGeometry x="30" width="150" height="30" as="geometry" />
        </mxCell>
        <mxCell id="VPEwx-q7KFhS5goN6XgM-47" value="" style="shape=partialRectangle;collapsible=0;dropTarget=0;pointerEvents=0;fillColor=none;top=0;left=0;bottom=0;right=0;points=[[0,0.5],[1,0.5]];portConstraint=eastwest;" vertex="1" parent="VPEwx-q7KFhS5goN6XgM-53">
          <mxGeometry y="150" width="180" height="30" as="geometry" />
        </mxCell>
        <mxCell id="VPEwx-q7KFhS5goN6XgM-48" value="" style="shape=partialRectangle;connectable=0;fillColor=none;top=0;left=0;bottom=0;right=0;editable=1;overflow=hidden;" vertex="1" parent="VPEwx-q7KFhS5goN6XgM-47">
          <mxGeometry width="30" height="30" as="geometry" />
        </mxCell>
        <mxCell id="VPEwx-q7KFhS5goN6XgM-49" value="名カナ" style="shape=partialRectangle;connectable=0;fillColor=none;top=0;left=0;bottom=0;right=0;align=left;spacingLeft=6;overflow=hidden;" vertex="1" parent="VPEwx-q7KFhS5goN6XgM-47">
          <mxGeometry x="30" width="150" height="30" as="geometry" />
        </mxCell>
        <mxCell id="VPEwx-q7KFhS5goN6XgM-50" value="" style="shape=partialRectangle;collapsible=0;dropTarget=0;pointerEvents=0;fillColor=none;top=0;left=0;bottom=0;right=0;points=[[0,0.5],[1,0.5]];portConstraint=eastwest;" vertex="1" parent="VPEwx-q7KFhS5goN6XgM-53">
          <mxGeometry y="180" width="180" height="30" as="geometry" />
        </mxCell>
        <mxCell id="VPEwx-q7KFhS5goN6XgM-51" value="" style="shape=partialRectangle;connectable=0;fillColor=none;top=0;left=0;bottom=0;right=0;editable=1;overflow=hidden;" vertex="1" parent="VPEwx-q7KFhS5goN6XgM-50">
          <mxGeometry width="30" height="30" as="geometry" />
        </mxCell>
        <mxCell id="VPEwx-q7KFhS5goN6XgM-52" value="メールアドレス" style="shape=partialRectangle;connectable=0;fillColor=none;top=0;left=0;bottom=0;right=0;align=left;spacingLeft=6;overflow=hidden;" vertex="1" parent="VPEwx-q7KFhS5goN6XgM-50">
          <mxGeometry x="30" width="150" height="30" as="geometry" />
        </mxCell>
        <mxCell id="VPEwx-q7KFhS5goN6XgM-218" style="shape=partialRectangle;collapsible=0;dropTarget=0;pointerEvents=0;fillColor=none;top=0;left=0;bottom=0;right=0;points=[[0,0.5],[1,0.5]];portConstraint=eastwest;" vertex="1" parent="VPEwx-q7KFhS5goN6XgM-53">
          <mxGeometry y="210" width="180" height="30" as="geometry" />
        </mxCell>
        <mxCell id="VPEwx-q7KFhS5goN6XgM-219" style="shape=partialRectangle;connectable=0;fillColor=none;top=0;left=0;bottom=0;right=0;editable=1;overflow=hidden;" vertex="1" parent="VPEwx-q7KFhS5goN6XgM-218">
          <mxGeometry width="30" height="30" as="geometry" />
        </mxCell>
        <mxCell id="VPEwx-q7KFhS5goN6XgM-220" value="パスワード" style="shape=partialRectangle;connectable=0;fillColor=none;top=0;left=0;bottom=0;right=0;align=left;spacingLeft=6;overflow=hidden;" vertex="1" parent="VPEwx-q7KFhS5goN6XgM-218">
          <mxGeometry x="30" width="150" height="30" as="geometry" />
        </mxCell>
        <mxCell id="VPEwx-q7KFhS5goN6XgM-215" style="shape=partialRectangle;collapsible=0;dropTarget=0;pointerEvents=0;fillColor=none;top=0;left=0;bottom=0;right=0;points=[[0,0.5],[1,0.5]];portConstraint=eastwest;" vertex="1" parent="VPEwx-q7KFhS5goN6XgM-53">
          <mxGeometry y="240" width="180" height="30" as="geometry" />
        </mxCell>
        <mxCell id="VPEwx-q7KFhS5goN6XgM-216" style="shape=partialRectangle;connectable=0;fillColor=none;top=0;left=0;bottom=0;right=0;editable=1;overflow=hidden;" vertex="1" parent="VPEwx-q7KFhS5goN6XgM-215">
          <mxGeometry width="30" height="30" as="geometry" />
        </mxCell>
        <mxCell id="VPEwx-q7KFhS5goN6XgM-217" value="郵便番号" style="shape=partialRectangle;connectable=0;fillColor=none;top=0;left=0;bottom=0;right=0;align=left;spacingLeft=6;overflow=hidden;" vertex="1" parent="VPEwx-q7KFhS5goN6XgM-215">
          <mxGeometry x="30" width="150" height="30" as="geometry" />
        </mxCell>
        <mxCell id="VPEwx-q7KFhS5goN6XgM-212" style="shape=partialRectangle;collapsible=0;dropTarget=0;pointerEvents=0;fillColor=none;top=0;left=0;bottom=0;right=0;points=[[0,0.5],[1,0.5]];portConstraint=eastwest;" vertex="1" parent="VPEwx-q7KFhS5goN6XgM-53">
          <mxGeometry y="270" width="180" height="30" as="geometry" />
        </mxCell>
        <mxCell id="VPEwx-q7KFhS5goN6XgM-213" style="shape=partialRectangle;connectable=0;fillColor=none;top=0;left=0;bottom=0;right=0;editable=1;overflow=hidden;" vertex="1" parent="VPEwx-q7KFhS5goN6XgM-212">
          <mxGeometry width="30" height="30" as="geometry" />
        </mxCell>
        <mxCell id="VPEwx-q7KFhS5goN6XgM-214" value="住所" style="shape=partialRectangle;connectable=0;fillColor=none;top=0;left=0;bottom=0;right=0;align=left;spacingLeft=6;overflow=hidden;" vertex="1" parent="VPEwx-q7KFhS5goN6XgM-212">
          <mxGeometry x="30" width="150" height="30" as="geometry" />
        </mxCell>
        <mxCell id="VPEwx-q7KFhS5goN6XgM-221" style="shape=partialRectangle;collapsible=0;dropTarget=0;pointerEvents=0;fillColor=none;top=0;left=0;bottom=0;right=0;points=[[0,0.5],[1,0.5]];portConstraint=eastwest;" vertex="1" parent="VPEwx-q7KFhS5goN6XgM-53">
          <mxGeometry y="300" width="180" height="30" as="geometry" />
        </mxCell>
        <mxCell id="VPEwx-q7KFhS5goN6XgM-222" style="shape=partialRectangle;connectable=0;fillColor=none;top=0;left=0;bottom=0;right=0;editable=1;overflow=hidden;" vertex="1" parent="VPEwx-q7KFhS5goN6XgM-221">
          <mxGeometry width="30" height="30" as="geometry" />
        </mxCell>
        <mxCell id="VPEwx-q7KFhS5goN6XgM-223" value="電話番号" style="shape=partialRectangle;connectable=0;fillColor=none;top=0;left=0;bottom=0;right=0;align=left;spacingLeft=6;overflow=hidden;" vertex="1" parent="VPEwx-q7KFhS5goN6XgM-221">
          <mxGeometry x="30" width="150" height="30" as="geometry" />
        </mxCell>
        <mxCell id="VPEwx-q7KFhS5goN6XgM-63" value="" style="shape=partialRectangle;collapsible=0;dropTarget=0;pointerEvents=0;fillColor=none;top=0;left=0;bottom=0;right=0;points=[[0,0.5],[1,0.5]];portConstraint=eastwest;" vertex="1" parent="VPEwx-q7KFhS5goN6XgM-53">
          <mxGeometry y="330" width="180" height="30" as="geometry" />
        </mxCell>
        <mxCell id="VPEwx-q7KFhS5goN6XgM-64" value="" style="shape=partialRectangle;connectable=0;fillColor=none;top=0;left=0;bottom=0;right=0;editable=1;overflow=hidden;" vertex="1" parent="VPEwx-q7KFhS5goN6XgM-63">
          <mxGeometry width="30" height="30" as="geometry" />
        </mxCell>
        <mxCell id="VPEwx-q7KFhS5goN6XgM-65" value="退会フラグ" style="shape=partialRectangle;connectable=0;fillColor=none;top=0;left=0;bottom=0;right=0;align=left;spacingLeft=6;overflow=hidden;" vertex="1" parent="VPEwx-q7KFhS5goN6XgM-63">
          <mxGeometry x="30" width="150" height="30" as="geometry" />
        </mxCell>
        <mxCell id="VPEwx-q7KFhS5goN6XgM-224" style="shape=partialRectangle;collapsible=0;dropTarget=0;pointerEvents=0;fillColor=none;top=0;left=0;bottom=0;right=0;points=[[0,0.5],[1,0.5]];portConstraint=eastwest;" vertex="1" parent="VPEwx-q7KFhS5goN6XgM-53">
          <mxGeometry y="360" width="180" height="30" as="geometry" />
        </mxCell>
        <mxCell id="VPEwx-q7KFhS5goN6XgM-225" style="shape=partialRectangle;connectable=0;fillColor=none;top=0;left=0;bottom=0;right=0;editable=1;overflow=hidden;" vertex="1" parent="VPEwx-q7KFhS5goN6XgM-224">
          <mxGeometry width="30" height="30" as="geometry" />
        </mxCell>
        <mxCell id="VPEwx-q7KFhS5goN6XgM-226" value="作成日時" style="shape=partialRectangle;connectable=0;fillColor=none;top=0;left=0;bottom=0;right=0;align=left;spacingLeft=6;overflow=hidden;" vertex="1" parent="VPEwx-q7KFhS5goN6XgM-224">
          <mxGeometry x="30" width="150" height="30" as="geometry" />
        </mxCell>
        <mxCell id="VPEwx-q7KFhS5goN6XgM-227" style="shape=partialRectangle;collapsible=0;dropTarget=0;pointerEvents=0;fillColor=none;top=0;left=0;bottom=0;right=0;points=[[0,0.5],[1,0.5]];portConstraint=eastwest;" vertex="1" parent="VPEwx-q7KFhS5goN6XgM-53">
          <mxGeometry y="390" width="180" height="30" as="geometry" />
        </mxCell>
        <mxCell id="VPEwx-q7KFhS5goN6XgM-228" style="shape=partialRectangle;connectable=0;fillColor=none;top=0;left=0;bottom=0;right=0;editable=1;overflow=hidden;" vertex="1" parent="VPEwx-q7KFhS5goN6XgM-227">
          <mxGeometry width="30" height="30" as="geometry" />
        </mxCell>
        <mxCell id="VPEwx-q7KFhS5goN6XgM-229" value="更新日時" style="shape=partialRectangle;connectable=0;fillColor=none;top=0;left=0;bottom=0;right=0;align=left;spacingLeft=6;overflow=hidden;" vertex="1" parent="VPEwx-q7KFhS5goN6XgM-227">
          <mxGeometry x="30" width="150" height="30" as="geometry" />
        </mxCell>
        <mxCell id="VPEwx-q7KFhS5goN6XgM-105" value="配送先" style="shape=table;startSize=30;container=1;collapsible=1;childLayout=tableLayout;fixedRows=1;rowLines=0;fontStyle=1;align=center;resizeLast=1;" vertex="1" parent="1">
          <mxGeometry x="10" y="490" width="180" height="250" as="geometry" />
        </mxCell>
        <mxCell id="VPEwx-q7KFhS5goN6XgM-106" value="" style="shape=partialRectangle;collapsible=0;dropTarget=0;pointerEvents=0;fillColor=none;top=0;left=0;bottom=1;right=0;points=[[0,0.5],[1,0.5]];portConstraint=eastwest;" vertex="1" parent="VPEwx-q7KFhS5goN6XgM-105">
          <mxGeometry y="30" width="180" height="30" as="geometry" />
        </mxCell>
        <mxCell id="VPEwx-q7KFhS5goN6XgM-107" value="PK" style="shape=partialRectangle;connectable=0;fillColor=none;top=0;left=0;bottom=0;right=0;fontStyle=1;overflow=hidden;" vertex="1" parent="VPEwx-q7KFhS5goN6XgM-106">
          <mxGeometry width="30" height="30" as="geometry" />
        </mxCell>
        <mxCell id="VPEwx-q7KFhS5goN6XgM-108" value="配送先id" style="shape=partialRectangle;connectable=0;fillColor=none;top=0;left=0;bottom=0;right=0;align=left;spacingLeft=6;fontStyle=5;overflow=hidden;" vertex="1" parent="VPEwx-q7KFhS5goN6XgM-106">
          <mxGeometry x="30" width="150" height="30" as="geometry" />
        </mxCell>
        <mxCell id="VPEwx-q7KFhS5goN6XgM-240" value="" style="shape=partialRectangle;collapsible=0;dropTarget=0;pointerEvents=0;fillColor=none;top=0;left=0;bottom=1;right=0;points=[[0,0.5],[1,0.5]];portConstraint=eastwest;" vertex="1" parent="VPEwx-q7KFhS5goN6XgM-105">
          <mxGeometry y="60" width="180" height="30" as="geometry" />
        </mxCell>
        <mxCell id="VPEwx-q7KFhS5goN6XgM-241" value="FK" style="shape=partialRectangle;connectable=0;fillColor=none;top=0;left=0;bottom=0;right=0;fontStyle=0;overflow=hidden;" vertex="1" parent="VPEwx-q7KFhS5goN6XgM-240">
          <mxGeometry width="30" height="30" as="geometry" />
        </mxCell>
        <mxCell id="VPEwx-q7KFhS5goN6XgM-242" value="会員id" style="shape=partialRectangle;connectable=0;fillColor=none;top=0;left=0;bottom=0;right=0;align=left;spacingLeft=6;fontStyle=0;overflow=hidden;" vertex="1" parent="VPEwx-q7KFhS5goN6XgM-240">
          <mxGeometry x="30" width="150" height="30" as="geometry" />
        </mxCell>
        <mxCell id="VPEwx-q7KFhS5goN6XgM-243" value="" style="shape=partialRectangle;collapsible=0;dropTarget=0;pointerEvents=0;fillColor=none;top=0;left=0;bottom=0;right=0;points=[[0,0.5],[1,0.5]];portConstraint=eastwest;" vertex="1" parent="VPEwx-q7KFhS5goN6XgM-105">
          <mxGeometry y="90" width="180" height="30" as="geometry" />
        </mxCell>
        <mxCell id="VPEwx-q7KFhS5goN6XgM-244" value="" style="shape=partialRectangle;connectable=0;fillColor=none;top=0;left=0;bottom=0;right=0;editable=1;overflow=hidden;" vertex="1" parent="VPEwx-q7KFhS5goN6XgM-243">
          <mxGeometry width="30" height="30" as="geometry" />
        </mxCell>
        <mxCell id="VPEwx-q7KFhS5goN6XgM-245" value="郵便番号" style="shape=partialRectangle;connectable=0;fillColor=none;top=0;left=0;bottom=0;right=0;align=left;spacingLeft=6;overflow=hidden;" vertex="1" parent="VPEwx-q7KFhS5goN6XgM-243">
          <mxGeometry x="30" width="150" height="30" as="geometry" />
        </mxCell>
        <mxCell id="VPEwx-q7KFhS5goN6XgM-246" value="" style="shape=partialRectangle;collapsible=0;dropTarget=0;pointerEvents=0;fillColor=none;top=0;left=0;bottom=0;right=0;points=[[0,0.5],[1,0.5]];portConstraint=eastwest;" vertex="1" parent="VPEwx-q7KFhS5goN6XgM-105">
          <mxGeometry y="120" width="180" height="30" as="geometry" />
        </mxCell>
        <mxCell id="VPEwx-q7KFhS5goN6XgM-247" value="" style="shape=partialRectangle;connectable=0;fillColor=none;top=0;left=0;bottom=0;right=0;editable=1;overflow=hidden;" vertex="1" parent="VPEwx-q7KFhS5goN6XgM-246">
          <mxGeometry width="30" height="30" as="geometry" />
        </mxCell>
        <mxCell id="VPEwx-q7KFhS5goN6XgM-248" value="住所" style="shape=partialRectangle;connectable=0;fillColor=none;top=0;left=0;bottom=0;right=0;align=left;spacingLeft=6;overflow=hidden;" vertex="1" parent="VPEwx-q7KFhS5goN6XgM-246">
          <mxGeometry x="30" width="150" height="30" as="geometry" />
        </mxCell>
        <mxCell id="VPEwx-q7KFhS5goN6XgM-249" value="" style="shape=partialRectangle;collapsible=0;dropTarget=0;pointerEvents=0;fillColor=none;top=0;left=0;bottom=0;right=0;points=[[0,0.5],[1,0.5]];portConstraint=eastwest;" vertex="1" parent="VPEwx-q7KFhS5goN6XgM-105">
          <mxGeometry y="150" width="180" height="30" as="geometry" />
        </mxCell>
        <mxCell id="VPEwx-q7KFhS5goN6XgM-250" value="" style="shape=partialRectangle;connectable=0;fillColor=none;top=0;left=0;bottom=0;right=0;editable=1;overflow=hidden;" vertex="1" parent="VPEwx-q7KFhS5goN6XgM-249">
          <mxGeometry width="30" height="30" as="geometry" />
        </mxCell>
        <mxCell id="VPEwx-q7KFhS5goN6XgM-251" value="宛名" style="shape=partialRectangle;connectable=0;fillColor=none;top=0;left=0;bottom=0;right=0;align=left;spacingLeft=6;overflow=hidden;" vertex="1" parent="VPEwx-q7KFhS5goN6XgM-249">
          <mxGeometry x="30" width="150" height="30" as="geometry" />
        </mxCell>
        <mxCell id="VPEwx-q7KFhS5goN6XgM-112" value="" style="shape=partialRectangle;collapsible=0;dropTarget=0;pointerEvents=0;fillColor=none;top=0;left=0;bottom=0;right=0;points=[[0,0.5],[1,0.5]];portConstraint=eastwest;" vertex="1" parent="VPEwx-q7KFhS5goN6XgM-105">
          <mxGeometry y="180" width="180" height="30" as="geometry" />
        </mxCell>
        <mxCell id="VPEwx-q7KFhS5goN6XgM-113" value="" style="shape=partialRectangle;connectable=0;fillColor=none;top=0;left=0;bottom=0;right=0;editable=1;overflow=hidden;" vertex="1" parent="VPEwx-q7KFhS5goN6XgM-112">
          <mxGeometry width="30" height="30" as="geometry" />
        </mxCell>
        <mxCell id="VPEwx-q7KFhS5goN6XgM-114" value="作成日時" style="shape=partialRectangle;connectable=0;fillColor=none;top=0;left=0;bottom=0;right=0;align=left;spacingLeft=6;overflow=hidden;" vertex="1" parent="VPEwx-q7KFhS5goN6XgM-112">
          <mxGeometry x="30" width="150" height="30" as="geometry" />
        </mxCell>
        <mxCell id="VPEwx-q7KFhS5goN6XgM-115" value="" style="shape=partialRectangle;collapsible=0;dropTarget=0;pointerEvents=0;fillColor=none;top=0;left=0;bottom=0;right=0;points=[[0,0.5],[1,0.5]];portConstraint=eastwest;" vertex="1" parent="VPEwx-q7KFhS5goN6XgM-105">
          <mxGeometry y="210" width="180" height="30" as="geometry" />
        </mxCell>
        <mxCell id="VPEwx-q7KFhS5goN6XgM-116" value="" style="shape=partialRectangle;connectable=0;fillColor=none;top=0;left=0;bottom=0;right=0;editable=1;overflow=hidden;" vertex="1" parent="VPEwx-q7KFhS5goN6XgM-115">
          <mxGeometry width="30" height="30" as="geometry" />
        </mxCell>
        <mxCell id="VPEwx-q7KFhS5goN6XgM-117" value="更新日時" style="shape=partialRectangle;connectable=0;fillColor=none;top=0;left=0;bottom=0;right=0;align=left;spacingLeft=6;overflow=hidden;" vertex="1" parent="VPEwx-q7KFhS5goN6XgM-115">
          <mxGeometry x="30" width="150" height="30" as="geometry" />
        </mxCell>
        <mxCell id="VPEwx-q7KFhS5goN6XgM-131" value="管理者" style="shape=table;startSize=30;container=1;collapsible=1;childLayout=tableLayout;fixedRows=1;rowLines=0;fontStyle=1;align=center;resizeLast=1;" vertex="1" parent="1">
          <mxGeometry x="610" y="470" width="180" height="190" as="geometry" />
        </mxCell>
        <mxCell id="VPEwx-q7KFhS5goN6XgM-132" value="" style="shape=partialRectangle;collapsible=0;dropTarget=0;pointerEvents=0;fillColor=none;top=0;left=0;bottom=1;right=0;points=[[0,0.5],[1,0.5]];portConstraint=eastwest;" vertex="1" parent="VPEwx-q7KFhS5goN6XgM-131">
          <mxGeometry y="30" width="180" height="30" as="geometry" />
        </mxCell>
        <mxCell id="VPEwx-q7KFhS5goN6XgM-133" value="PK" style="shape=partialRectangle;connectable=0;fillColor=none;top=0;left=0;bottom=0;right=0;fontStyle=1;overflow=hidden;" vertex="1" parent="VPEwx-q7KFhS5goN6XgM-132">
          <mxGeometry width="30" height="30" as="geometry" />
        </mxCell>
        <mxCell id="VPEwx-q7KFhS5goN6XgM-134" value="管理者id" style="shape=partialRectangle;connectable=0;fillColor=none;top=0;left=0;bottom=0;right=0;align=left;spacingLeft=6;fontStyle=5;overflow=hidden;" vertex="1" parent="VPEwx-q7KFhS5goN6XgM-132">
          <mxGeometry x="30" width="150" height="30" as="geometry" />
        </mxCell>
        <mxCell id="VPEwx-q7KFhS5goN6XgM-135" value="" style="shape=partialRectangle;collapsible=0;dropTarget=0;pointerEvents=0;fillColor=none;top=0;left=0;bottom=0;right=0;points=[[0,0.5],[1,0.5]];portConstraint=eastwest;" vertex="1" parent="VPEwx-q7KFhS5goN6XgM-131">
          <mxGeometry y="60" width="180" height="30" as="geometry" />
        </mxCell>
        <mxCell id="VPEwx-q7KFhS5goN6XgM-136" value="" style="shape=partialRectangle;connectable=0;fillColor=none;top=0;left=0;bottom=0;right=0;editable=1;overflow=hidden;" vertex="1" parent="VPEwx-q7KFhS5goN6XgM-135">
          <mxGeometry width="30" height="30" as="geometry" />
        </mxCell>
        <mxCell id="VPEwx-q7KFhS5goN6XgM-137" value="メールアドレス" style="shape=partialRectangle;connectable=0;fillColor=none;top=0;left=0;bottom=0;right=0;align=left;spacingLeft=6;overflow=hidden;" vertex="1" parent="VPEwx-q7KFhS5goN6XgM-135">
          <mxGeometry x="30" width="150" height="30" as="geometry" />
        </mxCell>
        <mxCell id="VPEwx-q7KFhS5goN6XgM-138" value="" style="shape=partialRectangle;collapsible=0;dropTarget=0;pointerEvents=0;fillColor=none;top=0;left=0;bottom=0;right=0;points=[[0,0.5],[1,0.5]];portConstraint=eastwest;" vertex="1" parent="VPEwx-q7KFhS5goN6XgM-131">
          <mxGeometry y="90" width="180" height="30" as="geometry" />
        </mxCell>
        <mxCell id="VPEwx-q7KFhS5goN6XgM-139" value="" style="shape=partialRectangle;connectable=0;fillColor=none;top=0;left=0;bottom=0;right=0;editable=1;overflow=hidden;" vertex="1" parent="VPEwx-q7KFhS5goN6XgM-138">
          <mxGeometry width="30" height="30" as="geometry" />
        </mxCell>
        <mxCell id="VPEwx-q7KFhS5goN6XgM-140" value="パスワード" style="shape=partialRectangle;connectable=0;fillColor=none;top=0;left=0;bottom=0;right=0;align=left;spacingLeft=6;overflow=hidden;" vertex="1" parent="VPEwx-q7KFhS5goN6XgM-138">
          <mxGeometry x="30" width="150" height="30" as="geometry" />
        </mxCell>
        <mxCell id="VPEwx-q7KFhS5goN6XgM-141" value="" style="shape=partialRectangle;collapsible=0;dropTarget=0;pointerEvents=0;fillColor=none;top=0;left=0;bottom=0;right=0;points=[[0,0.5],[1,0.5]];portConstraint=eastwest;" vertex="1" parent="VPEwx-q7KFhS5goN6XgM-131">
          <mxGeometry y="120" width="180" height="30" as="geometry" />
        </mxCell>
        <mxCell id="VPEwx-q7KFhS5goN6XgM-142" value="" style="shape=partialRectangle;connectable=0;fillColor=none;top=0;left=0;bottom=0;right=0;editable=1;overflow=hidden;" vertex="1" parent="VPEwx-q7KFhS5goN6XgM-141">
          <mxGeometry width="30" height="30" as="geometry" />
        </mxCell>
        <mxCell id="VPEwx-q7KFhS5goN6XgM-143" value="更新日時" style="shape=partialRectangle;connectable=0;fillColor=none;top=0;left=0;bottom=0;right=0;align=left;spacingLeft=6;overflow=hidden;" vertex="1" parent="VPEwx-q7KFhS5goN6XgM-141">
          <mxGeometry x="30" width="150" height="30" as="geometry" />
        </mxCell>
        <mxCell id="VPEwx-q7KFhS5goN6XgM-236" style="shape=partialRectangle;collapsible=0;dropTarget=0;pointerEvents=0;fillColor=none;top=0;left=0;bottom=0;right=0;points=[[0,0.5],[1,0.5]];portConstraint=eastwest;" vertex="1" parent="VPEwx-q7KFhS5goN6XgM-131">
          <mxGeometry y="150" width="180" height="30" as="geometry" />
        </mxCell>
        <mxCell id="VPEwx-q7KFhS5goN6XgM-237" style="shape=partialRectangle;connectable=0;fillColor=none;top=0;left=0;bottom=0;right=0;editable=1;overflow=hidden;" vertex="1" parent="VPEwx-q7KFhS5goN6XgM-236">
          <mxGeometry width="30" height="30" as="geometry" />
        </mxCell>
        <mxCell id="VPEwx-q7KFhS5goN6XgM-238" value="作成日時" style="shape=partialRectangle;connectable=0;fillColor=none;top=0;left=0;bottom=0;right=0;align=left;spacingLeft=6;overflow=hidden;" vertex="1" parent="VPEwx-q7KFhS5goN6XgM-236">
          <mxGeometry x="30" width="150" height="30" as="geometry" />
        </mxCell>
        <mxCell id="VPEwx-q7KFhS5goN6XgM-157" value="注文情報" style="shape=table;startSize=30;container=1;collapsible=1;childLayout=tableLayout;fixedRows=1;rowLines=0;fontStyle=1;align=center;resizeLast=1;" vertex="1" parent="1">
          <mxGeometry x="270" y="620" width="180" height="280" as="geometry" />
        </mxCell>
        <mxCell id="VPEwx-q7KFhS5goN6XgM-158" value="" style="shape=partialRectangle;collapsible=0;dropTarget=0;pointerEvents=0;fillColor=none;top=0;left=0;bottom=1;right=0;points=[[0,0.5],[1,0.5]];portConstraint=eastwest;" vertex="1" parent="VPEwx-q7KFhS5goN6XgM-157">
          <mxGeometry y="30" width="180" height="30" as="geometry" />
        </mxCell>
        <mxCell id="VPEwx-q7KFhS5goN6XgM-159" value="PK" style="shape=partialRectangle;connectable=0;fillColor=none;top=0;left=0;bottom=0;right=0;fontStyle=1;overflow=hidden;" vertex="1" parent="VPEwx-q7KFhS5goN6XgM-158">
          <mxGeometry width="30" height="30" as="geometry" />
        </mxCell>
        <mxCell id="VPEwx-q7KFhS5goN6XgM-160" value="注文情報id" style="shape=partialRectangle;connectable=0;fillColor=none;top=0;left=0;bottom=0;right=0;align=left;spacingLeft=6;fontStyle=5;overflow=hidden;" vertex="1" parent="VPEwx-q7KFhS5goN6XgM-158">
          <mxGeometry x="30" width="150" height="30" as="geometry" />
        </mxCell>
        <mxCell id="VPEwx-q7KFhS5goN6XgM-268" style="shape=partialRectangle;collapsible=0;dropTarget=0;pointerEvents=0;fillColor=none;top=0;left=0;bottom=0;right=0;points=[[0,0.5],[1,0.5]];portConstraint=eastwest;" vertex="1" parent="VPEwx-q7KFhS5goN6XgM-157">
          <mxGeometry y="60" width="180" height="30" as="geometry" />
        </mxCell>
        <mxCell id="VPEwx-q7KFhS5goN6XgM-269" value="FK" style="shape=partialRectangle;connectable=0;fillColor=none;top=0;left=0;bottom=0;right=0;editable=1;overflow=hidden;fontStyle=0" vertex="1" parent="VPEwx-q7KFhS5goN6XgM-268">
          <mxGeometry width="30" height="30" as="geometry" />
        </mxCell>
        <mxCell id="VPEwx-q7KFhS5goN6XgM-270" value="注文商品id" style="shape=partialRectangle;connectable=0;fillColor=none;top=0;left=0;bottom=0;right=0;align=left;spacingLeft=6;overflow=hidden;" vertex="1" parent="VPEwx-q7KFhS5goN6XgM-268">
          <mxGeometry x="30" width="150" height="30" as="geometry" />
        </mxCell>
        <mxCell id="VPEwx-q7KFhS5goN6XgM-293" value="" style="shape=partialRectangle;collapsible=0;dropTarget=0;pointerEvents=0;fillColor=none;top=0;left=0;bottom=1;right=0;points=[[0,0.5],[1,0.5]];portConstraint=eastwest;" vertex="1" parent="VPEwx-q7KFhS5goN6XgM-157">
          <mxGeometry y="90" width="180" height="30" as="geometry" />
        </mxCell>
        <mxCell id="VPEwx-q7KFhS5goN6XgM-294" value="" style="shape=partialRectangle;connectable=0;fillColor=none;top=0;left=0;bottom=0;right=0;fontStyle=1;overflow=hidden;" vertex="1" parent="VPEwx-q7KFhS5goN6XgM-293">
          <mxGeometry width="30" height="30" as="geometry" />
        </mxCell>
        <mxCell id="VPEwx-q7KFhS5goN6XgM-295" value="配送先id" style="shape=partialRectangle;connectable=0;fillColor=none;top=0;left=0;bottom=0;right=0;align=left;spacingLeft=6;fontStyle=0;overflow=hidden;" vertex="1" parent="VPEwx-q7KFhS5goN6XgM-293">
          <mxGeometry x="30" width="150" height="30" as="geometry" />
        </mxCell>
        <mxCell id="VPEwx-q7KFhS5goN6XgM-305" style="shape=partialRectangle;collapsible=0;dropTarget=0;pointerEvents=0;fillColor=none;top=0;left=0;bottom=0;right=0;points=[[0,0.5],[1,0.5]];portConstraint=eastwest;" vertex="1" parent="VPEwx-q7KFhS5goN6XgM-157">
          <mxGeometry y="120" width="180" height="30" as="geometry" />
        </mxCell>
        <mxCell id="VPEwx-q7KFhS5goN6XgM-306" style="shape=partialRectangle;connectable=0;fillColor=none;top=0;left=0;bottom=0;right=0;editable=1;overflow=hidden;" vertex="1" parent="VPEwx-q7KFhS5goN6XgM-305">
          <mxGeometry width="30" height="30" as="geometry" />
        </mxCell>
        <mxCell id="VPEwx-q7KFhS5goN6XgM-307" value="作成日時" style="shape=partialRectangle;connectable=0;fillColor=none;top=0;left=0;bottom=0;right=0;align=left;spacingLeft=6;overflow=hidden;" vertex="1" parent="VPEwx-q7KFhS5goN6XgM-305">
          <mxGeometry x="30" width="150" height="30" as="geometry" />
        </mxCell>
        <mxCell id="VPEwx-q7KFhS5goN6XgM-308" style="shape=partialRectangle;collapsible=0;dropTarget=0;pointerEvents=0;fillColor=none;top=0;left=0;bottom=0;right=0;points=[[0,0.5],[1,0.5]];portConstraint=eastwest;" vertex="1" parent="VPEwx-q7KFhS5goN6XgM-157">
          <mxGeometry y="150" width="180" height="30" as="geometry" />
        </mxCell>
        <mxCell id="VPEwx-q7KFhS5goN6XgM-309" style="shape=partialRectangle;connectable=0;fillColor=none;top=0;left=0;bottom=0;right=0;editable=1;overflow=hidden;" vertex="1" parent="VPEwx-q7KFhS5goN6XgM-308">
          <mxGeometry width="30" height="30" as="geometry" />
        </mxCell>
        <mxCell id="VPEwx-q7KFhS5goN6XgM-310" value="更新日時" style="shape=partialRectangle;connectable=0;fillColor=none;top=0;left=0;bottom=0;right=0;align=left;spacingLeft=6;overflow=hidden;" vertex="1" parent="VPEwx-q7KFhS5goN6XgM-308">
          <mxGeometry x="30" width="150" height="30" as="geometry" />
        </mxCell>
        <mxCell id="VPEwx-q7KFhS5goN6XgM-338" style="shape=partialRectangle;collapsible=0;dropTarget=0;pointerEvents=0;fillColor=none;top=0;left=0;bottom=0;right=0;points=[[0,0.5],[1,0.5]];portConstraint=eastwest;" vertex="1" parent="VPEwx-q7KFhS5goN6XgM-157">
          <mxGeometry y="180" width="180" height="30" as="geometry" />
        </mxCell>
        <mxCell id="VPEwx-q7KFhS5goN6XgM-339" style="shape=partialRectangle;connectable=0;fillColor=none;top=0;left=0;bottom=0;right=0;editable=1;overflow=hidden;" vertex="1" parent="VPEwx-q7KFhS5goN6XgM-338">
          <mxGeometry width="30" height="30" as="geometry" />
        </mxCell>
        <mxCell id="VPEwx-q7KFhS5goN6XgM-340" value="注文ステータス" style="shape=partialRectangle;connectable=0;fillColor=none;top=0;left=0;bottom=0;right=0;align=left;spacingLeft=6;overflow=hidden;" vertex="1" parent="VPEwx-q7KFhS5goN6XgM-338">
          <mxGeometry x="30" width="150" height="30" as="geometry" />
        </mxCell>
        <mxCell id="VPEwx-q7KFhS5goN6XgM-161" value="" style="shape=partialRectangle;collapsible=0;dropTarget=0;pointerEvents=0;fillColor=none;top=0;left=0;bottom=0;right=0;points=[[0,0.5],[1,0.5]];portConstraint=eastwest;" vertex="1" parent="VPEwx-q7KFhS5goN6XgM-157">
          <mxGeometry y="210" width="180" height="30" as="geometry" />
        </mxCell>
        <mxCell id="VPEwx-q7KFhS5goN6XgM-162" value="" style="shape=partialRectangle;connectable=0;fillColor=none;top=0;left=0;bottom=0;right=0;editable=1;overflow=hidden;" vertex="1" parent="VPEwx-q7KFhS5goN6XgM-161">
          <mxGeometry width="30" height="30" as="geometry" />
        </mxCell>
        <mxCell id="VPEwx-q7KFhS5goN6XgM-163" value="支払金額（小計＋送料）" style="shape=partialRectangle;connectable=0;fillColor=none;top=0;left=0;bottom=0;right=0;align=left;spacingLeft=6;overflow=hidden;" vertex="1" parent="VPEwx-q7KFhS5goN6XgM-161">
          <mxGeometry x="30" width="150" height="30" as="geometry" />
        </mxCell>
        <mxCell id="VPEwx-q7KFhS5goN6XgM-164" value="" style="shape=partialRectangle;collapsible=0;dropTarget=0;pointerEvents=0;fillColor=none;top=0;left=0;bottom=0;right=0;points=[[0,0.5],[1,0.5]];portConstraint=eastwest;" vertex="1" parent="VPEwx-q7KFhS5goN6XgM-157">
          <mxGeometry y="240" width="180" height="30" as="geometry" />
        </mxCell>
        <mxCell id="VPEwx-q7KFhS5goN6XgM-165" value="" style="shape=partialRectangle;connectable=0;fillColor=none;top=0;left=0;bottom=0;right=0;editable=1;overflow=hidden;" vertex="1" parent="VPEwx-q7KFhS5goN6XgM-164">
          <mxGeometry width="30" height="30" as="geometry" />
        </mxCell>
        <mxCell id="VPEwx-q7KFhS5goN6XgM-166" value="支払方法" style="shape=partialRectangle;connectable=0;fillColor=none;top=0;left=0;bottom=0;right=0;align=left;spacingLeft=6;overflow=hidden;" vertex="1" parent="VPEwx-q7KFhS5goN6XgM-164">
          <mxGeometry x="30" width="150" height="30" as="geometry" />
        </mxCell>
        <mxCell id="VPEwx-q7KFhS5goN6XgM-170" value="ジャンル" style="shape=table;startSize=30;container=1;collapsible=1;childLayout=tableLayout;fixedRows=1;rowLines=0;fontStyle=1;align=center;resizeLast=1;" vertex="1" parent="1">
          <mxGeometry x="640" y="45" width="180" height="200" as="geometry" />
        </mxCell>
        <mxCell id="VPEwx-q7KFhS5goN6XgM-171" value="" style="shape=partialRectangle;collapsible=0;dropTarget=0;pointerEvents=0;fillColor=none;top=0;left=0;bottom=1;right=0;points=[[0,0.5],[1,0.5]];portConstraint=eastwest;" vertex="1" parent="VPEwx-q7KFhS5goN6XgM-170">
          <mxGeometry y="30" width="180" height="30" as="geometry" />
        </mxCell>
        <mxCell id="VPEwx-q7KFhS5goN6XgM-172" value="PK" style="shape=partialRectangle;connectable=0;fillColor=none;top=0;left=0;bottom=0;right=0;fontStyle=1;overflow=hidden;" vertex="1" parent="VPEwx-q7KFhS5goN6XgM-171">
          <mxGeometry width="30" height="30" as="geometry" />
        </mxCell>
        <mxCell id="VPEwx-q7KFhS5goN6XgM-173" value="ジャンルid" style="shape=partialRectangle;connectable=0;fillColor=none;top=0;left=0;bottom=0;right=0;align=left;spacingLeft=6;fontStyle=5;overflow=hidden;" vertex="1" parent="VPEwx-q7KFhS5goN6XgM-171">
          <mxGeometry x="30" width="150" height="30" as="geometry" />
        </mxCell>
        <mxCell id="VPEwx-q7KFhS5goN6XgM-174" value="" style="shape=partialRectangle;collapsible=0;dropTarget=0;pointerEvents=0;fillColor=none;top=0;left=0;bottom=0;right=0;points=[[0,0.5],[1,0.5]];portConstraint=eastwest;" vertex="1" parent="VPEwx-q7KFhS5goN6XgM-170">
          <mxGeometry y="60" width="180" height="30" as="geometry" />
        </mxCell>
        <mxCell id="VPEwx-q7KFhS5goN6XgM-175" value="" style="shape=partialRectangle;connectable=0;fillColor=none;top=0;left=0;bottom=0;right=0;editable=1;overflow=hidden;" vertex="1" parent="VPEwx-q7KFhS5goN6XgM-174">
          <mxGeometry width="30" height="30" as="geometry" />
        </mxCell>
        <mxCell id="VPEwx-q7KFhS5goN6XgM-176" value="ジャンル名" style="shape=partialRectangle;connectable=0;fillColor=none;top=0;left=0;bottom=0;right=0;align=left;spacingLeft=6;overflow=hidden;" vertex="1" parent="VPEwx-q7KFhS5goN6XgM-174">
          <mxGeometry x="30" width="150" height="30" as="geometry" />
        </mxCell>
        <mxCell id="VPEwx-q7KFhS5goN6XgM-177" value="" style="shape=partialRectangle;collapsible=0;dropTarget=0;pointerEvents=0;fillColor=none;top=0;left=0;bottom=0;right=0;points=[[0,0.5],[1,0.5]];portConstraint=eastwest;" vertex="1" parent="VPEwx-q7KFhS5goN6XgM-170">
          <mxGeometry y="90" width="180" height="70" as="geometry" />
        </mxCell>
        <mxCell id="VPEwx-q7KFhS5goN6XgM-178" value="" style="shape=partialRectangle;connectable=0;fillColor=none;top=0;left=0;bottom=0;right=0;editable=1;overflow=hidden;" vertex="1" parent="VPEwx-q7KFhS5goN6XgM-177">
          <mxGeometry width="30" height="70" as="geometry" />
        </mxCell>
        <mxCell id="VPEwx-q7KFhS5goN6XgM-179" value="更新日時" style="shape=partialRectangle;connectable=0;fillColor=none;top=0;left=0;bottom=0;right=0;align=left;spacingLeft=6;overflow=hidden;" vertex="1" parent="VPEwx-q7KFhS5goN6XgM-177">
          <mxGeometry x="30" width="150" height="70" as="geometry" />
        </mxCell>
        <mxCell id="VPEwx-q7KFhS5goN6XgM-180" value="" style="shape=partialRectangle;collapsible=0;dropTarget=0;pointerEvents=0;fillColor=none;top=0;left=0;bottom=0;right=0;points=[[0,0.5],[1,0.5]];portConstraint=eastwest;" vertex="1" parent="VPEwx-q7KFhS5goN6XgM-170">
          <mxGeometry y="160" width="180" height="30" as="geometry" />
        </mxCell>
        <mxCell id="VPEwx-q7KFhS5goN6XgM-181" value="" style="shape=partialRectangle;connectable=0;fillColor=none;top=0;left=0;bottom=0;right=0;editable=1;overflow=hidden;" vertex="1" parent="VPEwx-q7KFhS5goN6XgM-180">
          <mxGeometry width="30" height="30" as="geometry" />
        </mxCell>
        <mxCell id="VPEwx-q7KFhS5goN6XgM-182" value="作成日時" style="shape=partialRectangle;connectable=0;fillColor=none;top=0;left=0;bottom=0;right=0;align=left;spacingLeft=6;overflow=hidden;" vertex="1" parent="VPEwx-q7KFhS5goN6XgM-180">
          <mxGeometry x="30" width="150" height="30" as="geometry" />
        </mxCell>
        <mxCell id="VPEwx-q7KFhS5goN6XgM-183" value="商品" style="shape=table;startSize=30;container=1;collapsible=1;childLayout=tableLayout;fixedRows=1;rowLines=0;fontStyle=1;align=center;resizeLast=1;" vertex="1" parent="1">
          <mxGeometry x="440" y="25" width="180" height="310" as="geometry" />
        </mxCell>
        <mxCell id="VPEwx-q7KFhS5goN6XgM-184" value="" style="shape=partialRectangle;collapsible=0;dropTarget=0;pointerEvents=0;fillColor=none;top=0;left=0;bottom=1;right=0;points=[[0,0.5],[1,0.5]];portConstraint=eastwest;" vertex="1" parent="VPEwx-q7KFhS5goN6XgM-183">
          <mxGeometry y="30" width="180" height="30" as="geometry" />
        </mxCell>
        <mxCell id="VPEwx-q7KFhS5goN6XgM-185" value="PK" style="shape=partialRectangle;connectable=0;fillColor=none;top=0;left=0;bottom=0;right=0;fontStyle=1;overflow=hidden;" vertex="1" parent="VPEwx-q7KFhS5goN6XgM-184">
          <mxGeometry width="30" height="30" as="geometry" />
        </mxCell>
        <mxCell id="VPEwx-q7KFhS5goN6XgM-186" value="商品id" style="shape=partialRectangle;connectable=0;fillColor=none;top=0;left=0;bottom=0;right=0;align=left;spacingLeft=6;fontStyle=5;overflow=hidden;" vertex="1" parent="VPEwx-q7KFhS5goN6XgM-184">
          <mxGeometry x="30" width="150" height="30" as="geometry" />
        </mxCell>
        <mxCell id="VPEwx-q7KFhS5goN6XgM-15" value="" style="shape=partialRectangle;collapsible=0;dropTarget=0;pointerEvents=0;fillColor=none;top=0;left=0;bottom=1;right=0;points=[[0,0.5],[1,0.5]];portConstraint=eastwest;" vertex="1" parent="VPEwx-q7KFhS5goN6XgM-183">
          <mxGeometry y="60" width="180" height="30" as="geometry" />
        </mxCell>
        <mxCell id="VPEwx-q7KFhS5goN6XgM-16" value="FK" style="shape=partialRectangle;connectable=0;fillColor=none;top=0;left=0;bottom=0;right=0;fontStyle=0;overflow=hidden;" vertex="1" parent="VPEwx-q7KFhS5goN6XgM-15">
          <mxGeometry width="30" height="30" as="geometry" />
        </mxCell>
        <mxCell id="VPEwx-q7KFhS5goN6XgM-17" value="ジャンルid" style="shape=partialRectangle;connectable=0;fillColor=none;top=0;left=0;bottom=0;right=0;align=left;spacingLeft=6;fontStyle=0;overflow=hidden;" vertex="1" parent="VPEwx-q7KFhS5goN6XgM-15">
          <mxGeometry x="30" width="150" height="30" as="geometry" />
        </mxCell>
        <mxCell id="VPEwx-q7KFhS5goN6XgM-18" value="" style="shape=partialRectangle;collapsible=0;dropTarget=0;pointerEvents=0;fillColor=none;top=0;left=0;bottom=0;right=0;points=[[0,0.5],[1,0.5]];portConstraint=eastwest;" vertex="1" parent="VPEwx-q7KFhS5goN6XgM-183">
          <mxGeometry y="90" width="180" height="30" as="geometry" />
        </mxCell>
        <mxCell id="VPEwx-q7KFhS5goN6XgM-19" value="" style="shape=partialRectangle;connectable=0;fillColor=none;top=0;left=0;bottom=0;right=0;editable=1;overflow=hidden;" vertex="1" parent="VPEwx-q7KFhS5goN6XgM-18">
          <mxGeometry width="30" height="30" as="geometry" />
        </mxCell>
        <mxCell id="VPEwx-q7KFhS5goN6XgM-20" value="商品名" style="shape=partialRectangle;connectable=0;fillColor=none;top=0;left=0;bottom=0;right=0;align=left;spacingLeft=6;overflow=hidden;" vertex="1" parent="VPEwx-q7KFhS5goN6XgM-18">
          <mxGeometry x="30" width="150" height="30" as="geometry" />
        </mxCell>
        <mxCell id="VPEwx-q7KFhS5goN6XgM-21" value="" style="shape=partialRectangle;collapsible=0;dropTarget=0;pointerEvents=0;fillColor=none;top=0;left=0;bottom=0;right=0;points=[[0,0.5],[1,0.5]];portConstraint=eastwest;" vertex="1" parent="VPEwx-q7KFhS5goN6XgM-183">
          <mxGeometry y="120" width="180" height="30" as="geometry" />
        </mxCell>
        <mxCell id="VPEwx-q7KFhS5goN6XgM-22" value="" style="shape=partialRectangle;connectable=0;fillColor=none;top=0;left=0;bottom=0;right=0;editable=1;overflow=hidden;" vertex="1" parent="VPEwx-q7KFhS5goN6XgM-21">
          <mxGeometry width="30" height="30" as="geometry" />
        </mxCell>
        <mxCell id="VPEwx-q7KFhS5goN6XgM-23" value="商品画像id" style="shape=partialRectangle;connectable=0;fillColor=none;top=0;left=0;bottom=0;right=0;align=left;spacingLeft=6;overflow=hidden;" vertex="1" parent="VPEwx-q7KFhS5goN6XgM-21">
          <mxGeometry x="30" width="150" height="30" as="geometry" />
        </mxCell>
        <mxCell id="VPEwx-q7KFhS5goN6XgM-24" value="" style="shape=partialRectangle;collapsible=0;dropTarget=0;pointerEvents=0;fillColor=none;top=0;left=0;bottom=0;right=0;points=[[0,0.5],[1,0.5]];portConstraint=eastwest;" vertex="1" parent="VPEwx-q7KFhS5goN6XgM-183">
          <mxGeometry y="150" width="180" height="30" as="geometry" />
        </mxCell>
        <mxCell id="VPEwx-q7KFhS5goN6XgM-25" value="" style="shape=partialRectangle;connectable=0;fillColor=none;top=0;left=0;bottom=0;right=0;editable=1;overflow=hidden;" vertex="1" parent="VPEwx-q7KFhS5goN6XgM-24">
          <mxGeometry width="30" height="30" as="geometry" />
        </mxCell>
        <mxCell id="VPEwx-q7KFhS5goN6XgM-26" value="商品説明文" style="shape=partialRectangle;connectable=0;fillColor=none;top=0;left=0;bottom=0;right=0;align=left;spacingLeft=6;overflow=hidden;" vertex="1" parent="VPEwx-q7KFhS5goN6XgM-24">
          <mxGeometry x="30" width="150" height="30" as="geometry" />
        </mxCell>
        <mxCell id="VPEwx-q7KFhS5goN6XgM-284" style="shape=partialRectangle;collapsible=0;dropTarget=0;pointerEvents=0;fillColor=none;top=0;left=0;bottom=0;right=0;points=[[0,0.5],[1,0.5]];portConstraint=eastwest;" vertex="1" parent="VPEwx-q7KFhS5goN6XgM-183">
          <mxGeometry y="180" width="180" height="30" as="geometry" />
        </mxCell>
        <mxCell id="VPEwx-q7KFhS5goN6XgM-285" style="shape=partialRectangle;connectable=0;fillColor=none;top=0;left=0;bottom=0;right=0;editable=1;overflow=hidden;" vertex="1" parent="VPEwx-q7KFhS5goN6XgM-284">
          <mxGeometry width="30" height="30" as="geometry" />
        </mxCell>
        <mxCell id="VPEwx-q7KFhS5goN6XgM-286" value="税抜価格" style="shape=partialRectangle;connectable=0;fillColor=none;top=0;left=0;bottom=0;right=0;align=left;spacingLeft=6;overflow=hidden;" vertex="1" parent="VPEwx-q7KFhS5goN6XgM-284">
          <mxGeometry x="30" width="150" height="30" as="geometry" />
        </mxCell>
        <mxCell id="VPEwx-q7KFhS5goN6XgM-233" style="shape=partialRectangle;collapsible=0;dropTarget=0;pointerEvents=0;fillColor=none;top=0;left=0;bottom=0;right=0;points=[[0,0.5],[1,0.5]];portConstraint=eastwest;" vertex="1" parent="VPEwx-q7KFhS5goN6XgM-183">
          <mxGeometry y="210" width="180" height="30" as="geometry" />
        </mxCell>
        <mxCell id="VPEwx-q7KFhS5goN6XgM-234" style="shape=partialRectangle;connectable=0;fillColor=none;top=0;left=0;bottom=0;right=0;editable=1;overflow=hidden;" vertex="1" parent="VPEwx-q7KFhS5goN6XgM-233">
          <mxGeometry width="30" height="30" as="geometry" />
        </mxCell>
        <mxCell id="VPEwx-q7KFhS5goN6XgM-235" value="販売ステータス" style="shape=partialRectangle;connectable=0;fillColor=none;top=0;left=0;bottom=0;right=0;align=left;spacingLeft=6;overflow=hidden;" vertex="1" parent="VPEwx-q7KFhS5goN6XgM-233">
          <mxGeometry x="30" width="150" height="30" as="geometry" />
        </mxCell>
        <mxCell id="VPEwx-q7KFhS5goN6XgM-230" style="shape=partialRectangle;collapsible=0;dropTarget=0;pointerEvents=0;fillColor=none;top=0;left=0;bottom=0;right=0;points=[[0,0.5],[1,0.5]];portConstraint=eastwest;" vertex="1" parent="VPEwx-q7KFhS5goN6XgM-183">
          <mxGeometry y="240" width="180" height="30" as="geometry" />
        </mxCell>
        <mxCell id="VPEwx-q7KFhS5goN6XgM-231" style="shape=partialRectangle;connectable=0;fillColor=none;top=0;left=0;bottom=0;right=0;editable=1;overflow=hidden;" vertex="1" parent="VPEwx-q7KFhS5goN6XgM-230">
          <mxGeometry width="30" height="30" as="geometry" />
        </mxCell>
        <mxCell id="VPEwx-q7KFhS5goN6XgM-232" value="作成日時" style="shape=partialRectangle;connectable=0;fillColor=none;top=0;left=0;bottom=0;right=0;align=left;spacingLeft=6;overflow=hidden;" vertex="1" parent="VPEwx-q7KFhS5goN6XgM-230">
          <mxGeometry x="30" width="150" height="30" as="geometry" />
        </mxCell>
        <mxCell id="VPEwx-q7KFhS5goN6XgM-193" value="" style="shape=partialRectangle;collapsible=0;dropTarget=0;pointerEvents=0;fillColor=none;top=0;left=0;bottom=0;right=0;points=[[0,0.5],[1,0.5]];portConstraint=eastwest;" vertex="1" parent="VPEwx-q7KFhS5goN6XgM-183">
          <mxGeometry y="270" width="180" height="30" as="geometry" />
        </mxCell>
        <mxCell id="VPEwx-q7KFhS5goN6XgM-194" value="" style="shape=partialRectangle;connectable=0;fillColor=none;top=0;left=0;bottom=0;right=0;editable=1;overflow=hidden;" vertex="1" parent="VPEwx-q7KFhS5goN6XgM-193">
          <mxGeometry width="30" height="30" as="geometry" />
        </mxCell>
        <mxCell id="VPEwx-q7KFhS5goN6XgM-195" value="更新日時" style="shape=partialRectangle;connectable=0;fillColor=none;top=0;left=0;bottom=0;right=0;align=left;spacingLeft=6;overflow=hidden;" vertex="1" parent="VPEwx-q7KFhS5goN6XgM-193">
          <mxGeometry x="30" width="150" height="30" as="geometry" />
        </mxCell>
        <mxCell id="VPEwx-q7KFhS5goN6XgM-196" value="カート内商品" style="shape=table;startSize=30;container=1;collapsible=1;childLayout=tableLayout;fixedRows=1;rowLines=0;fontStyle=1;align=center;resizeLast=1;" vertex="1" parent="1">
          <mxGeometry x="234" y="20" width="180" height="250" as="geometry" />
        </mxCell>
        <mxCell id="VPEwx-q7KFhS5goN6XgM-197" value="" style="shape=partialRectangle;collapsible=0;dropTarget=0;pointerEvents=0;fillColor=none;top=0;left=0;bottom=1;right=0;points=[[0,0.5],[1,0.5]];portConstraint=eastwest;" vertex="1" parent="VPEwx-q7KFhS5goN6XgM-196">
          <mxGeometry y="30" width="180" height="30" as="geometry" />
        </mxCell>
        <mxCell id="VPEwx-q7KFhS5goN6XgM-198" value="PK" style="shape=partialRectangle;connectable=0;fillColor=none;top=0;left=0;bottom=0;right=0;fontStyle=1;overflow=hidden;" vertex="1" parent="VPEwx-q7KFhS5goN6XgM-197">
          <mxGeometry width="30" height="30" as="geometry" />
        </mxCell>
        <mxCell id="VPEwx-q7KFhS5goN6XgM-199" value="カート内商品id" style="shape=partialRectangle;connectable=0;fillColor=none;top=0;left=0;bottom=0;right=0;align=left;spacingLeft=6;fontStyle=5;overflow=hidden;" vertex="1" parent="VPEwx-q7KFhS5goN6XgM-197">
          <mxGeometry x="30" width="150" height="30" as="geometry" />
        </mxCell>
        <mxCell id="VPEwx-q7KFhS5goN6XgM-209" style="shape=partialRectangle;collapsible=0;dropTarget=0;pointerEvents=0;fillColor=none;top=0;left=0;bottom=0;right=0;points=[[0,0.5],[1,0.5]];portConstraint=eastwest;" vertex="1" parent="VPEwx-q7KFhS5goN6XgM-196">
          <mxGeometry y="60" width="180" height="30" as="geometry" />
        </mxCell>
        <mxCell id="VPEwx-q7KFhS5goN6XgM-210" value="FK" style="shape=partialRectangle;connectable=0;fillColor=none;top=0;left=0;bottom=0;right=0;editable=1;overflow=hidden;" vertex="1" parent="VPEwx-q7KFhS5goN6XgM-209">
          <mxGeometry width="30" height="30" as="geometry" />
        </mxCell>
        <mxCell id="VPEwx-q7KFhS5goN6XgM-211" value="商品id" style="shape=partialRectangle;connectable=0;fillColor=none;top=0;left=0;bottom=0;right=0;align=left;spacingLeft=6;overflow=hidden;" vertex="1" parent="VPEwx-q7KFhS5goN6XgM-209">
          <mxGeometry x="30" width="150" height="30" as="geometry" />
        </mxCell>
        <mxCell id="VPEwx-q7KFhS5goN6XgM-28" value="" style="shape=partialRectangle;collapsible=0;dropTarget=0;pointerEvents=0;fillColor=none;top=0;left=0;bottom=1;right=0;points=[[0,0.5],[1,0.5]];portConstraint=eastwest;" vertex="1" parent="VPEwx-q7KFhS5goN6XgM-196">
          <mxGeometry y="90" width="180" height="30" as="geometry" />
        </mxCell>
        <mxCell id="VPEwx-q7KFhS5goN6XgM-29" value="" style="shape=partialRectangle;connectable=0;fillColor=none;top=0;left=0;bottom=0;right=0;fontStyle=1;overflow=hidden;" vertex="1" parent="VPEwx-q7KFhS5goN6XgM-28">
          <mxGeometry width="30" height="30" as="geometry" />
        </mxCell>
        <mxCell id="VPEwx-q7KFhS5goN6XgM-30" value="会員id" style="shape=partialRectangle;connectable=0;fillColor=none;top=0;left=0;bottom=0;right=0;align=left;spacingLeft=6;fontStyle=0;overflow=hidden;" vertex="1" parent="VPEwx-q7KFhS5goN6XgM-28">
          <mxGeometry x="30" width="150" height="30" as="geometry" />
        </mxCell>
        <mxCell id="VPEwx-q7KFhS5goN6XgM-31" value="" style="shape=partialRectangle;collapsible=0;dropTarget=0;pointerEvents=0;fillColor=none;top=0;left=0;bottom=0;right=0;points=[[0,0.5],[1,0.5]];portConstraint=eastwest;" vertex="1" parent="VPEwx-q7KFhS5goN6XgM-196">
          <mxGeometry y="120" width="180" height="30" as="geometry" />
        </mxCell>
        <mxCell id="VPEwx-q7KFhS5goN6XgM-32" value="" style="shape=partialRectangle;connectable=0;fillColor=none;top=0;left=0;bottom=0;right=0;editable=1;overflow=hidden;" vertex="1" parent="VPEwx-q7KFhS5goN6XgM-31">
          <mxGeometry width="30" height="30" as="geometry" />
        </mxCell>
        <mxCell id="VPEwx-q7KFhS5goN6XgM-33" value="数量" style="shape=partialRectangle;connectable=0;fillColor=none;top=0;left=0;bottom=0;right=0;align=left;spacingLeft=6;overflow=hidden;" vertex="1" parent="VPEwx-q7KFhS5goN6XgM-31">
          <mxGeometry x="30" width="150" height="30" as="geometry" />
        </mxCell>
        <mxCell id="VPEwx-q7KFhS5goN6XgM-34" value="" style="shape=partialRectangle;collapsible=0;dropTarget=0;pointerEvents=0;fillColor=none;top=0;left=0;bottom=0;right=0;points=[[0,0.5],[1,0.5]];portConstraint=eastwest;" vertex="1" parent="VPEwx-q7KFhS5goN6XgM-196">
          <mxGeometry y="150" width="180" height="30" as="geometry" />
        </mxCell>
        <mxCell id="VPEwx-q7KFhS5goN6XgM-35" value="" style="shape=partialRectangle;connectable=0;fillColor=none;top=0;left=0;bottom=0;right=0;editable=1;overflow=hidden;" vertex="1" parent="VPEwx-q7KFhS5goN6XgM-34">
          <mxGeometry width="30" height="30" as="geometry" />
        </mxCell>
        <mxCell id="VPEwx-q7KFhS5goN6XgM-36" value="作成日時" style="shape=partialRectangle;connectable=0;fillColor=none;top=0;left=0;bottom=0;right=0;align=left;spacingLeft=6;overflow=hidden;" vertex="1" parent="VPEwx-q7KFhS5goN6XgM-34">
          <mxGeometry x="30" width="150" height="30" as="geometry" />
        </mxCell>
        <mxCell id="VPEwx-q7KFhS5goN6XgM-37" value="" style="shape=partialRectangle;collapsible=0;dropTarget=0;pointerEvents=0;fillColor=none;top=0;left=0;bottom=0;right=0;points=[[0,0.5],[1,0.5]];portConstraint=eastwest;" vertex="1" parent="VPEwx-q7KFhS5goN6XgM-196">
          <mxGeometry y="180" width="180" height="30" as="geometry" />
        </mxCell>
        <mxCell id="VPEwx-q7KFhS5goN6XgM-38" value="" style="shape=partialRectangle;connectable=0;fillColor=none;top=0;left=0;bottom=0;right=0;editable=1;overflow=hidden;" vertex="1" parent="VPEwx-q7KFhS5goN6XgM-37">
          <mxGeometry width="30" height="30" as="geometry" />
        </mxCell>
        <mxCell id="VPEwx-q7KFhS5goN6XgM-39" value="更新日時" style="shape=partialRectangle;connectable=0;fillColor=none;top=0;left=0;bottom=0;right=0;align=left;spacingLeft=6;overflow=hidden;" vertex="1" parent="VPEwx-q7KFhS5goN6XgM-37">
          <mxGeometry x="30" width="150" height="30" as="geometry" />
        </mxCell>
        <mxCell id="VPEwx-q7KFhS5goN6XgM-281" style="shape=partialRectangle;collapsible=0;dropTarget=0;pointerEvents=0;fillColor=none;top=0;left=0;bottom=0;right=0;points=[[0,0.5],[1,0.5]];portConstraint=eastwest;" vertex="1" parent="VPEwx-q7KFhS5goN6XgM-196">
          <mxGeometry y="210" width="180" height="30" as="geometry" />
        </mxCell>
        <mxCell id="VPEwx-q7KFhS5goN6XgM-282" style="shape=partialRectangle;connectable=0;fillColor=none;top=0;left=0;bottom=0;right=0;editable=1;overflow=hidden;" vertex="1" parent="VPEwx-q7KFhS5goN6XgM-281">
          <mxGeometry width="30" height="30" as="geometry" />
        </mxCell>
        <mxCell id="VPEwx-q7KFhS5goN6XgM-283" value="商品小計" style="shape=partialRectangle;connectable=0;fillColor=none;top=0;left=0;bottom=0;right=0;align=left;spacingLeft=6;overflow=hidden;" vertex="1" parent="VPEwx-q7KFhS5goN6XgM-281">
          <mxGeometry x="30" width="150" height="30" as="geometry" />
        </mxCell>
        <mxCell id="VPEwx-q7KFhS5goN6XgM-287" value="" style="endArrow=ERmany;html=1;exitX=1;exitY=0.5;exitDx=0;exitDy=0;entryX=-0.016;entryY=0.973;entryDx=0;entryDy=0;entryPerimeter=0;endFill=0;startArrow=ERone;startFill=0;edgeStyle=orthogonalEdgeStyle;" edge="1" parent="1" source="VPEwx-q7KFhS5goN6XgM-63" target="VPEwx-q7KFhS5goN6XgM-158">
          <mxGeometry width="50" height="50" relative="1" as="geometry">
            <mxPoint x="390" y="490" as="sourcePoint" />
            <mxPoint x="440" y="440" as="targetPoint" />
          </mxGeometry>
        </mxCell>
        <mxCell id="VPEwx-q7KFhS5goN6XgM-289" value="" style="endArrow=ERone;html=1;endFill=0;startArrow=ERone;startFill=0;edgeStyle=orthogonalEdgeStyle;" edge="1" parent="1">
          <mxGeometry width="50" height="50" relative="1" as="geometry">
            <mxPoint x="190" y="320" as="sourcePoint" />
            <mxPoint x="240" y="270" as="targetPoint" />
          </mxGeometry>
        </mxCell>
        <mxCell id="VPEwx-q7KFhS5goN6XgM-311" value="" style="endArrow=ERmany;html=1;entryX=0;entryY=0.5;entryDx=0;entryDy=0;exitX=1.009;exitY=0.813;exitDx=0;exitDy=0;exitPerimeter=0;startArrow=ERone;startFill=0;endFill=0;edgeStyle=orthogonalEdgeStyle;" edge="1" parent="1" source="VPEwx-q7KFhS5goN6XgM-221" target="VPEwx-q7KFhS5goN6XgM-193">
          <mxGeometry width="50" height="50" relative="1" as="geometry">
            <mxPoint x="220" y="360" as="sourcePoint" />
            <mxPoint x="270" y="310" as="targetPoint" />
          </mxGeometry>
        </mxCell>
        <mxCell id="VPEwx-q7KFhS5goN6XgM-312" value="" style="endArrow=ERone;html=1;exitX=1;exitY=0.5;exitDx=0;exitDy=0;startArrow=ERmany;startFill=0;endFill=0;edgeStyle=orthogonalEdgeStyle;entryX=1.009;entryY=0.8;entryDx=0;entryDy=0;entryPerimeter=0;" edge="1" parent="1" source="VPEwx-q7KFhS5goN6XgM-240" target="VPEwx-q7KFhS5goN6XgM-54">
          <mxGeometry width="50" height="50" relative="1" as="geometry">
            <mxPoint x="390" y="390" as="sourcePoint" />
            <mxPoint x="220" y="160" as="targetPoint" />
          </mxGeometry>
        </mxCell>
        <mxCell id="VPEwx-q7KFhS5goN6XgM-313" value="" style="endArrow=ERmany;html=1;exitX=0.133;exitY=-0.024;exitDx=0;exitDy=0;exitPerimeter=0;startArrow=ERone;startFill=0;endFill=0;edgeStyle=orthogonalEdgeStyle;" edge="1" parent="1" source="VPEwx-q7KFhS5goN6XgM-131">
          <mxGeometry width="50" height="50" relative="1" as="geometry">
            <mxPoint x="560" y="430" as="sourcePoint" />
            <mxPoint x="560" y="330" as="targetPoint" />
          </mxGeometry>
        </mxCell>
        <mxCell id="VPEwx-q7KFhS5goN6XgM-314" value="" style="endArrow=ERone;html=1;entryX=0;entryY=0.5;entryDx=0;entryDy=0;exitX=1;exitY=0.5;exitDx=0;exitDy=0;startArrow=ERone;startFill=0;endFill=0;edgeStyle=orthogonalEdgeStyle;" edge="1" parent="1" source="VPEwx-q7KFhS5goN6XgM-15" target="VPEwx-q7KFhS5goN6XgM-171">
          <mxGeometry width="50" height="50" relative="1" as="geometry">
            <mxPoint x="390" y="290" as="sourcePoint" />
            <mxPoint x="440" y="240" as="targetPoint" />
          </mxGeometry>
        </mxCell>
        <mxCell id="VPEwx-q7KFhS5goN6XgM-315" value="" style="endArrow=ERone;html=1;entryX=0;entryY=0.5;entryDx=0;entryDy=0;exitX=1;exitY=0.5;exitDx=0;exitDy=0;endFill=0;edgeStyle=orthogonalEdgeStyle;startArrow=ERmany;startFill=0;" edge="1" parent="1" source="VPEwx-q7KFhS5goN6XgM-209" target="VPEwx-q7KFhS5goN6XgM-184">
          <mxGeometry width="50" height="50" relative="1" as="geometry">
            <mxPoint x="390" y="260" as="sourcePoint" />
            <mxPoint x="440" y="210" as="targetPoint" />
          </mxGeometry>
        </mxCell>
        <mxCell id="VPEwx-q7KFhS5goN6XgM-317" style="edgeStyle=orthogonalEdgeStyle;rounded=0;orthogonalLoop=1;jettySize=auto;html=1;exitX=1;exitY=0.5;exitDx=0;exitDy=0;entryX=0;entryY=0.5;entryDx=0;entryDy=0;startArrow=ERone;startFill=0;endArrow=ERmany;endFill=0;" edge="1" parent="1" source="VPEwx-q7KFhS5goN6XgM-54" target="VPEwx-q7KFhS5goN6XgM-28">
          <mxGeometry relative="1" as="geometry" />
        </mxCell>
        <mxCell id="VPEwx-q7KFhS5goN6XgM-319" value="" style="endArrow=ERmany;html=1;edgeStyle=orthogonalEdgeStyle;startArrow=ERone;startFill=0;endFill=0;" edge="1" parent="1" source="VPEwx-q7KFhS5goN6XgM-131">
          <mxGeometry width="50" height="50" relative="1" as="geometry">
            <mxPoint x="700" y="460" as="sourcePoint" />
            <mxPoint x="700" y="250" as="targetPoint" />
          </mxGeometry>
        </mxCell>
        <mxCell id="VPEwx-q7KFhS5goN6XgM-321" value="" style="endArrow=ERone;html=1;entryX=0;entryY=0.5;entryDx=0;entryDy=0;exitX=1;exitY=0.5;exitDx=0;exitDy=0;startArrow=ERoneToMany;startFill=0;endFill=0;edgeStyle=orthogonalEdgeStyle;" edge="1" parent="1" source="VPEwx-q7KFhS5goN6XgM-305" target="VPEwx-q7KFhS5goN6XgM-138">
          <mxGeometry width="50" height="50" relative="1" as="geometry">
            <mxPoint x="390" y="560" as="sourcePoint" />
            <mxPoint x="440" y="510" as="targetPoint" />
          </mxGeometry>
        </mxCell>
        <mxCell id="VPEwx-q7KFhS5goN6XgM-324" value="" style="endArrow=ERone;html=1;edgeStyle=orthogonalEdgeStyle;exitX=1;exitY=0.5;exitDx=0;exitDy=0;entryX=0;entryY=0.5;entryDx=0;entryDy=0;startArrow=ERone;startFill=0;endFill=0;" edge="1" parent="1" source="VPEwx-q7KFhS5goN6XgM-106" target="VPEwx-q7KFhS5goN6XgM-293">
          <mxGeometry width="50" height="50" relative="1" as="geometry">
            <mxPoint x="390" y="460" as="sourcePoint" />
            <mxPoint x="450" y="430" as="targetPoint" />
          </mxGeometry>
        </mxCell>
        <mxCell id="VPEwx-q7KFhS5goN6XgM-325" value="注文商品中間テーブル" style="shape=table;startSize=30;container=1;collapsible=1;childLayout=tableLayout;fixedRows=1;rowLines=0;fontStyle=1;align=center;resizeLast=1;strokeColor=#000000;" vertex="1" parent="1">
          <mxGeometry x="240" y="380" width="180" height="220" as="geometry" />
        </mxCell>
        <mxCell id="VPEwx-q7KFhS5goN6XgM-326" value="" style="shape=partialRectangle;collapsible=0;dropTarget=0;pointerEvents=0;fillColor=none;top=0;left=0;bottom=1;right=0;points=[[0,0.5],[1,0.5]];portConstraint=eastwest;" vertex="1" parent="VPEwx-q7KFhS5goN6XgM-325">
          <mxGeometry y="30" width="180" height="30" as="geometry" />
        </mxCell>
        <mxCell id="VPEwx-q7KFhS5goN6XgM-327" value="PK" style="shape=partialRectangle;connectable=0;fillColor=none;top=0;left=0;bottom=0;right=0;fontStyle=1;overflow=hidden;" vertex="1" parent="VPEwx-q7KFhS5goN6XgM-326">
          <mxGeometry width="30" height="30" as="geometry" />
        </mxCell>
        <mxCell id="VPEwx-q7KFhS5goN6XgM-328" value="注文商品id" style="shape=partialRectangle;connectable=0;fillColor=none;top=0;left=0;bottom=0;right=0;align=left;spacingLeft=6;fontStyle=5;overflow=hidden;" vertex="1" parent="VPEwx-q7KFhS5goN6XgM-326">
          <mxGeometry x="30" width="150" height="30" as="geometry" />
        </mxCell>
        <mxCell id="VPEwx-q7KFhS5goN6XgM-344" style="shape=partialRectangle;collapsible=0;dropTarget=0;pointerEvents=0;fillColor=none;top=0;left=0;bottom=1;right=0;points=[[0,0.5],[1,0.5]];portConstraint=eastwest;" vertex="1" parent="VPEwx-q7KFhS5goN6XgM-325">
          <mxGeometry y="60" width="180" height="30" as="geometry" />
        </mxCell>
        <mxCell id="VPEwx-q7KFhS5goN6XgM-345" value="FK" style="shape=partialRectangle;connectable=0;fillColor=none;top=0;left=0;bottom=0;right=0;fontStyle=0;overflow=hidden;" vertex="1" parent="VPEwx-q7KFhS5goN6XgM-344">
          <mxGeometry width="30" height="30" as="geometry" />
        </mxCell>
        <mxCell id="VPEwx-q7KFhS5goN6XgM-346" value="商品id" style="shape=partialRectangle;connectable=0;fillColor=none;top=0;left=0;bottom=0;right=0;align=left;spacingLeft=6;fontStyle=0;overflow=hidden;" vertex="1" parent="VPEwx-q7KFhS5goN6XgM-344">
          <mxGeometry x="30" width="150" height="30" as="geometry" />
        </mxCell>
        <mxCell id="VPEwx-q7KFhS5goN6XgM-329" value="" style="shape=partialRectangle;collapsible=0;dropTarget=0;pointerEvents=0;fillColor=none;top=0;left=0;bottom=0;right=0;points=[[0,0.5],[1,0.5]];portConstraint=eastwest;" vertex="1" parent="VPEwx-q7KFhS5goN6XgM-325">
          <mxGeometry y="90" width="180" height="30" as="geometry" />
        </mxCell>
        <mxCell id="VPEwx-q7KFhS5goN6XgM-330" value="" style="shape=partialRectangle;connectable=0;fillColor=none;top=0;left=0;bottom=0;right=0;editable=1;overflow=hidden;" vertex="1" parent="VPEwx-q7KFhS5goN6XgM-329">
          <mxGeometry width="30" height="30" as="geometry" />
        </mxCell>
        <mxCell id="VPEwx-q7KFhS5goN6XgM-331" value="税込価格" style="shape=partialRectangle;connectable=0;fillColor=none;top=0;left=0;bottom=0;right=0;align=left;spacingLeft=6;overflow=hidden;" vertex="1" parent="VPEwx-q7KFhS5goN6XgM-329">
          <mxGeometry x="30" width="150" height="30" as="geometry" />
        </mxCell>
        <mxCell id="VPEwx-q7KFhS5goN6XgM-332" value="" style="shape=partialRectangle;collapsible=0;dropTarget=0;pointerEvents=0;fillColor=none;top=0;left=0;bottom=0;right=0;points=[[0,0.5],[1,0.5]];portConstraint=eastwest;" vertex="1" parent="VPEwx-q7KFhS5goN6XgM-325">
          <mxGeometry y="120" width="180" height="30" as="geometry" />
        </mxCell>
        <mxCell id="VPEwx-q7KFhS5goN6XgM-333" value="" style="shape=partialRectangle;connectable=0;fillColor=none;top=0;left=0;bottom=0;right=0;editable=1;overflow=hidden;" vertex="1" parent="VPEwx-q7KFhS5goN6XgM-332">
          <mxGeometry width="30" height="30" as="geometry" />
        </mxCell>
        <mxCell id="VPEwx-q7KFhS5goN6XgM-334" value="数量" style="shape=partialRectangle;connectable=0;fillColor=none;top=0;left=0;bottom=0;right=0;align=left;spacingLeft=6;overflow=hidden;" vertex="1" parent="VPEwx-q7KFhS5goN6XgM-332">
          <mxGeometry x="30" width="150" height="30" as="geometry" />
        </mxCell>
        <mxCell id="VPEwx-q7KFhS5goN6XgM-335" value="" style="shape=partialRectangle;collapsible=0;dropTarget=0;pointerEvents=0;fillColor=none;top=0;left=0;bottom=0;right=0;points=[[0,0.5],[1,0.5]];portConstraint=eastwest;" vertex="1" parent="VPEwx-q7KFhS5goN6XgM-325">
          <mxGeometry y="150" width="180" height="30" as="geometry" />
        </mxCell>
        <mxCell id="VPEwx-q7KFhS5goN6XgM-336" value="" style="shape=partialRectangle;connectable=0;fillColor=none;top=0;left=0;bottom=0;right=0;editable=1;overflow=hidden;" vertex="1" parent="VPEwx-q7KFhS5goN6XgM-335">
          <mxGeometry width="30" height="30" as="geometry" />
        </mxCell>
        <mxCell id="VPEwx-q7KFhS5goN6XgM-337" value="小計金額" style="shape=partialRectangle;connectable=0;fillColor=none;top=0;left=0;bottom=0;right=0;align=left;spacingLeft=6;overflow=hidden;" vertex="1" parent="VPEwx-q7KFhS5goN6XgM-335">
          <mxGeometry x="30" width="150" height="30" as="geometry" />
        </mxCell>
        <mxCell id="VPEwx-q7KFhS5goN6XgM-347" style="shape=partialRectangle;collapsible=0;dropTarget=0;pointerEvents=0;fillColor=none;top=0;left=0;bottom=0;right=0;points=[[0,0.5],[1,0.5]];portConstraint=eastwest;" vertex="1" parent="VPEwx-q7KFhS5goN6XgM-325">
          <mxGeometry y="180" width="180" height="30" as="geometry" />
        </mxCell>
        <mxCell id="VPEwx-q7KFhS5goN6XgM-348" style="shape=partialRectangle;connectable=0;fillColor=none;top=0;left=0;bottom=0;right=0;editable=1;overflow=hidden;" vertex="1" parent="VPEwx-q7KFhS5goN6XgM-347">
          <mxGeometry width="30" height="30" as="geometry" />
        </mxCell>
        <mxCell id="VPEwx-q7KFhS5goN6XgM-349" value="製作ステータス" style="shape=partialRectangle;connectable=0;fillColor=none;top=0;left=0;bottom=0;right=0;align=left;spacingLeft=6;overflow=hidden;" vertex="1" parent="VPEwx-q7KFhS5goN6XgM-347">
          <mxGeometry x="30" width="150" height="30" as="geometry" />
        </mxCell>
        <mxCell id="VPEwx-q7KFhS5goN6XgM-352" value="" style="endArrow=ERone;html=1;edgeStyle=orthogonalEdgeStyle;exitX=1;exitY=0.5;exitDx=0;exitDy=0;entryX=0;entryY=0.5;entryDx=0;entryDy=0;endFill=0;startArrow=ERone;startFill=0;" edge="1" parent="1" source="VPEwx-q7KFhS5goN6XgM-344" target="VPEwx-q7KFhS5goN6XgM-184">
          <mxGeometry width="50" height="50" relative="1" as="geometry">
            <mxPoint x="390" y="60" as="sourcePoint" />
            <mxPoint x="430" y="60" as="targetPoint" />
          </mxGeometry>
        </mxCell>
        <mxCell id="VPEwx-q7KFhS5goN6XgM-353" value="" style="endArrow=ERone;html=1;edgeStyle=orthogonalEdgeStyle;exitX=1;exitY=0.5;exitDx=0;exitDy=0;entryX=1;entryY=0.5;entryDx=0;entryDy=0;startArrow=ERmany;startFill=0;endFill=0;" edge="1" parent="1" source="VPEwx-q7KFhS5goN6XgM-268" target="VPEwx-q7KFhS5goN6XgM-326">
          <mxGeometry width="50" height="50" relative="1" as="geometry">
            <mxPoint x="390" y="560" as="sourcePoint" />
            <mxPoint x="440" y="510" as="targetPoint" />
          </mxGeometry>
        </mxCell>
      </root>
    </mxGraphModel>
  </diagram>
</mxfile>
